<svg xmlns="http://www.w3.org/2000/svg" version="1.1" xmlns:xlink="http://www.w3.org/1999/xlink" xmlns:svgjs="http://svgjs.dev/svgjs" width="1400" height="816" preserveAspectRatio="none" viewBox="0 0 1400 816"><g mask="url(&quot;#SvgjsMask1278&quot;)" fill="none"><rect width="1400" height="816" x="0" y="0" fill="rgba(223, 231, 255, 1)"></rect><path d="M0,365.033C67.157,354.921,128.296,324.828,182.228,283.553C232.932,244.749,277.065,196.485,298.72,136.421C319.44,78.951,300.268,17.955,300.01,-43.135C299.702,-116.039,342.844,-200.668,297.056,-257.401C251.555,-313.778,159.003,-284.374,89.318,-304.19C20.458,-323.771,-38.998,-385.29,-109.528,-373.017C-181.243,-360.537,-236.994,-300.919,-277.406,-240.374C-315.112,-183.883,-308.628,-112.387,-327.113,-47.032C-349.199,31.054,-417.809,102.797,-396.624,181.132C-375.349,259.8,-295.209,310.032,-221.276,344.312C-152.678,376.119,-74.77,376.292,0,365.033" fill="#c7d5ff"></path><path d="M1400 1232.234C1494.462 1247.416 1592.9470000000001 1291.054 1680.483 1252.44 1770.72 1212.635 1843.566 1124.2930000000001 1863.614 1027.726 1882.894 934.858 1796.617 854.796 1782.509 761.003 1768.542 668.149 1842.466 556.835 1781.98 485.012 1721.692 413.424 1602.094 459.323 1510.861 438.441 1427.037 419.255 1349.853 340.195 1268.289 367.434 1186.52 394.741 1169.513 502.35 1116.329 570.198 1066.5140000000001 633.748 984.608 675.062 965.626 753.546 946.15 834.074 977.5350000000001 917.896 1014.2760000000001 992.154 1050.226 1064.813 1103.212 1127.882 1172.036 1170.719 1240.237 1213.1689999999999 1320.685 1219.4859999999999 1400 1232.234" fill="#f7f9ff"></path></g><defs><mask id="SvgjsMask1278"><rect width="1400" height="816" fill="#ffffff"></rect></mask></defs></svg>