<svg xmlns="http://www.w3.org/2000/svg" version="1.1" xmlns:xlink="http://www.w3.org/1999/xlink" xmlns:svgjs="http://svgjs.dev/svgjs" width="1400" height="816" preserveAspectRatio="none" viewBox="0 0 1400 816"><g mask="url(&quot;#SvgjsMask1091&quot;)" fill="none"><rect width="1400" height="816" x="0" y="0" fill="rgba(246, 247, 247, 1)"></rect><path d="M0,618.551C112.303,599.727,180.76,491.713,273.962,426.293C362.398,364.218,476.339,335.267,533.875,243.813C594.627,147.246,619.879,25.874,596.068,-85.702C572.842,-194.535,476.731,-265.919,406.648,-352.363C333.861,-442.142,281.561,-553.502,176.955,-602.654C65.139,-655.194,-65.937,-663,-185.106,-630.414C-305.414,-597.517,-408.319,-518.717,-486.222,-421.314C-562.229,-326.281,-607.714,-210.123,-618.219,-88.887C-628.365,28.206,-592.493,141.376,-544.267,248.558C-495.817,356.238,-437.76,462.836,-340.109,529.219C-241.168,596.479,-117.992,638.328,0,618.551" fill="#e9ebeb"></path><path d="M1400 1436.274C1511.63 1406.929 1556.649 1273.2350000000001 1654.337 1211.757 1753.49 1149.357 1919.287 1181.884 1971.145 1076.833 2022.607 972.5840000000001 1910.085 859.711 1884.057 746.403 1860.799 645.153 1877.632 536.909 1826.365 446.553 1768.605 344.753 1693.874 227.889 1578.542 207.94000000000005 1462.626 187.89 1373.862 310.018 1262.904 349.092 1160.138 385.281 1038.38 361.138 952.633 428.354 860.386 500.666 799.366 611.24 780.841 726.978 762.18 843.57 806.105 957.5409999999999 850.416 1066.987 896.494 1180.795 940.346 1304.179 1042.258 1372.658 1144.867 1441.605 1280.44 1467.703 1400 1436.274" fill="#ffffff"></path></g><defs><mask id="SvgjsMask1091"><rect width="1400" height="816" fill="#ffffff"></rect></mask></defs></svg>