<svg xmlns="http://www.w3.org/2000/svg" version="1.1" xmlns:xlink="http://www.w3.org/1999/xlink" xmlns:svgjs="http://svgjs.dev/svgjs" width="1460" height="676" preserveAspectRatio="none" viewBox="0 0 1460 676"><g mask="url(&quot;#SvgjsMask1340&quot;)" fill="none"><rect width="1460" height="676" x="0" y="0" fill="rgba(204, 222, 242, 1)"></rect><path d="M 0,174 C 97.4,146.6 292.2,37.6 487,37 C 681.8,36.4 779.4,160.8 974,171 C 1168.6,181.2 1362.8,104.6 1460,88L1460 676L0 676z" fill="rgba(200, 218, 237, 1)"></path><path d="M 0,476 C 73,510.6 219,643.4 365,649 C 511,654.6 584,513.2 730,504 C 876,494.8 949,633 1095,603 C 1241,573 1387,403.8 1460,354L1460 676L0 676z" fill="rgba(187, 214, 240, 1)"></path></g><defs><mask id="SvgjsMask1340"><rect width="1460" height="676" fill="#ffffff"></rect></mask></defs></svg>